PathFileType	4	(X/Y/Z)	C:/Users/beibeiliu/ov580/test_trc/User1\sequence.26_training_dense_right.trc
DataRate	CameraRate	NumFrames	NumMarkers	Units	OrigDataRate	OrigDataStartFrame	OrigNumFrames
120	120	12	19	mm	120	56	83
Frame#	Time	ThumbCMC			ThumbMCP			ThumbIP			ThumbTip			IndexMCP			IndexPIP			IndexTip			MiddleMCP			MiddlePIP			MiddleTip			RingMCP			RingPIP			RingTip			PinkyMCP			PinkyPIP			PinkyTip			BackHand1			BackHand2			BackHand3	
		X0	Y0	Z0	X1	Y1	Z1	X2	Y2	Z2	X3	Y3	Z3	X4	Y4	Z4	X5	Y5	Z5	X6	Y6	Z6	X7	Y7	Z7	X8	Y8	Z8	X9	Y9	Z9	X10	Y10	Z10	X11	Y11	Z11	X12	Y12	Z12	X13	Y13	Z13	X14	Y14	Z14	X15	Y15	Z15	X16	Y16	Z16	X17	Y17	Z17	X18	Y18	Z18	
55	0.458333	122.69	57.8857	120.104	94.8836	52.7366	95.0402	88.1042	53.8099	68.68	85.8093	52.5734	37.6456	112.415	85.383	43.1048	110.413	55.5529	30.5925	121.697	38.8444	60.1832	132.244	78.6659	32.3328	126.718	40.7386	31.9667	138.264	30.9184	66.2579	154.957	72.093	23.0065	144.948	41.5505	22.4146	146.844	30.538	57.1843	186.078	82.3137	36.7924	184.862	88.3781	18.2819	177.081	104.657	1.39841	182.589	86.3705	85.9033	190.747	73.2671	115.557	152.808	86.9116	112.791	
56	0.466667	108.879	44.4143	122.363	82.5619	31.7738	103.018	70.162	27.646	74.4993	66.2497	17.3781	52.7633	88.9544	49.9315	39.8031	89.1654	17.3331	42.1228	102.417	16.5421	72.8418	109.793	43.143	31.5623	107.64	8.88566	44.0718	117.058	12.5608	78.4051	129.861	38.6721	26.0262	127.482	7.78422	33.3974	132.02	7.83596	66.6289	160.661	55.8679	28.8329	157.338	56.6004	10.5619	153.435	66.9854	-12.7081	156.291	70.8252	77.4395	172.736	65.7056	110.272	131.081	75.4506	105.222	
57	0.475	102.25	49.6195	123.658	70.916	42.2704	107.307	54.992	33.5673	87.7641	49.3454	18.3523	63.4314	71.5045	40.8771	48.1064	67.0001	10.6457	56.2382	83.5688	15.1366	85.09	91.0689	24.4361	38.914	80.7785	-1.80135	59.3996	100.939	12.0382	92.1876	111.687	12.2967	33.7663	93.9556	-9.84634	55.9891	112.161	-2.09769	83.4965	140.313	19.1698	32.4625	134.945	13.4967	12.4036	126.481	20.656	-7.58401	150.082	48.0841	70.6138	166.264	46.4124	104.428	127.414	66.7764	100.051	
58	0.483333	116.221	65.6748	115.923	82.1688	73.0525	103.335	63.8679	67.7475	82.8684	46.6488	53.2745	67.1314	74.6331	52.7664	45.7514	54.4795	37.4256	61.6396	77.2018	38.0731	91.5733	81.452	29.5179	41.8791	62.2621	16.5298	66.8471	88.0763	25.7548	95.882	90.2067	10.6353	41.8065	69.4733	-0.966809	67.874	91.8302	6.18208	90.9753	115.789	-1.9435	38.117	106.475	-10.2102	23.131	98.5266	-10.5487	1.31201	147.765	21.9223	69.2483	165.433	22.9706	98.5493	143.425	54.8845	88.216	
59	0.491667	144.635	71.3612	104.917	120.022	94.1632	85.6643	98.406	98.3682	64.8646	79.2995	91.1187	55.4944	101.266	70.7895	35.2646	72.8868	68.4873	53.5347	93.0995	62.7551	83.9011	91.1418	43.3895	36.4037	69.3438	51.8454	64.4198	95.2704	47.1268	91.3239	88.1835	21.8272	39.4768	65.9787	32.6299	63.1989	90.815	34.9125	88.4224	101.205	-4.41729	38.6763	91.4382	-1.3047	26.4395	83.5809	-4.64472	1.39487	145.895	11.6896	68.0769	159.692	5.04041	95.6663	159.834	40.5759	80.5859	
60	0.5	169.199	69.987	97.6574	156.023	98.1119	80.185	142.45	108.422	56.819	121.341	106.781	38.4987	136.999	74.3631	25.4956	108.809	88.6323	39.3624	117.003	81.604	72.1603	122.012	53.8057	25.3947	96.4239	69.4154	49.7552	118.1	65.8482	82.9702	112.311	38.4142	27.4583	88.8847	53.0751	48.9482	105.41	51.8347	75.9299	115.808	4.56796	33.1146	107.289	6.7555	16.1429	103.914	4.76124	-7.34836	153.764	7.78456	68.4541	164.33	1.13387	101.764	178.135	34.3597	82.2981	
61	0.508333	180.421	78.1032	104.612	172.832	108.437	83.3257	164.658	111.358	54.5429	152.515	117.514	34.9611	173.098	88.7947	26.7039	140.969	95.3037	29.1553	134.936	86.366	63.9781	155.3	66.547	20.6508	126.584	79.0753	36.8015	132.085	72.3058	73.1998	146.852	46.2124	18.552	118.813	61.3745	32.4535	124.714	56.5323	64.4374	155.188	13.628	27.74	151.861	16.2343	6.59513	153.515	24.4554	-16.6887	180.307	20.0356	65.7546	180.918	10.3619	103.954	197.442	43.3553	91.2474	
62	0.516667	163.841	94.0748	118.295	150.063	113.583	92.7167	145.163	125.593	66.4924	136.649	128.488	39.9141	170.596	113.16	36.4357	137.403	105.816	35.5425	130.856	89.3275	66.2972	171.495	90.2282	29.1958	135.822	86.8943	34.736	137.813	68.4076	74.2264	168.904	67.6407	19.6509	138.369	65.5293	27.2103	137.726	56.0944	59.9782	191.072	40.9454	29.4036	190.986	54.2069	8.30659	194.19	59.7803	-12.7207	203.355	46.9601	74.8591	199.979	33.4731	108.164	201.178	74.0552	101.917	
63	0.525	135.005	85.6525	120.759	107.534	95.8368	100.287	101.314	106.272	71.3655	101.672	104.57	46.6057	135.662	119.579	50.9386	117.504	91.2124	36.7952	116.336	72.2254	63.3696	153.659	99.6867	36.8515	124.411	75.3847	36.149	129.666	58.6775	70.759	163.609	88.1789	29.3025	140.219	66.8961	24.9378	140.601	48.8372	54.9644	194.777	80.8383	36.0652	194.58	86.131	19.682	193.916	105.422	-2.85774	196.893	79.8916	83.2662	200.483	61.5416	114.099	173.528	94.5525	115.103	
64	0.533333	112.554	61.8934	122.488	86.7024	59.7672	98.6209	76.4446	67.262	68.395	74.8241	64.6684	44.2468	104.771	92.694	48.2467	100.344	63.1552	34.614	104.933	43.9292	65.9942	124.357	82.112	32.8179	113.128	50.1693	34.5536	125.495	37.4508	72.2246	146.505	78.6088	29.7932	129.214	46.5373	27.3914	137.716	33.2968	59.7881	178.823	84.2878	38.9774	173.582	93.1007	19.4773	169.251	108.118	-0.526142	171.986	85.8577	88.9728	184.774	70.6043	118.554	144.613	87.0043	113.522	
65	0.541667	97.4577	43.9447	122.814	73.3771	34.3183	100.554	61.0136	33.584	73.5715	59.789	27.3557	45.2066	85.3558	60.3686	45.0701	80.8294	26.0807	40.0851	96.8566	22.3985	73.4179	107.931	53.6393	34.1181	102.637	20.8564	37.5153	115.866	18.2084	79.6791	129.803	52.29	29.3558	122.182	18.8913	31.2146	127.991	13.5655	63.1001	159.515	64.5783	35.9821	153.385	67.7834	18.9253	152.207	79.2858	-4.12484	151.412	76.3928	82.9492	165.7	65.1411	117.453	122.609	72.7811	111.372	
66	0.55	91.9195	43.9356	131.57	59.1671	36.5171	108.195	47.0621	29.6324	85.7572	45.1814	19.7612	58.067	67.3082	49.5162	51.5088	62.2184	13.3759	54.1139	79.7365	17.0345	84.7229	87.7119	35.8027	39.6668	83.8048	3.73597	51.5305	94.4741	11.0314	88.8316	110.827	27.8678	33.5041	100.648	-4.73591	48.013	107.118	1.63271	76.7936	140.587	36.9541	34.3313	136.321	35.4522	15.018	135.783	40.8849	-6.17511	142.955	58.4262	77.4694	158.358	55.2333	112.287	119.082	66.5169	109.409	
